<svg xmlns="http://www.w3.org/2000/svg" width="752" height="922" viewBox="0 0 752 922">
<foreignObject x="0" y="0" width="752" height="922"><div xmlns="http://www.w3.org/1999/xhtml" class="page" style="height:922px">
<style><![CDATA[.page{--bg:#16161c;--fg:#e6e6ee;--dim:#8a8a9a;--card:#1e1e27;--line:#33333f;box-sizing:border-box;width:752px;padding:16px;background:var(--bg);color:var(--fg);font:13px/1.5 ui-monospace,SFMono-Regular,Menlo,monospace}
.dim{color:var(--dim)}svg{display:block;flex:none}b{font-weight:700}
.pane{background:var(--card);border:1px solid var(--line);border-radius:10px;padding:10px 14px;box-sizing:border-box;font-size:13px}
.pane .hd{display:flex;justify-content:space-between;align-items:baseline;gap:10px}
.pane h4{font:600 11px system-ui,sans-serif;text-transform:uppercase;letter-spacing:.06em;color:var(--dim);margin:12px 0 6px;border-top:1px solid var(--line);padding-top:10px}
.pane h4 .tw{display:inline-block;width:14px;color:var(--fg)}.pane h4 .sum{text-transform:none;letter-spacing:0;font-weight:400}
.pane .txt{min-width:0;overflow:hidden;flex:1}.pane .txt>div{overflow:hidden;text-overflow:ellipsis;white-space:nowrap}
.pane .sm{font-size:11px}
.lim{display:flex;align-items:center;gap:8px}.lim .lk{width:52px;color:var(--dim);font-size:12px}.lim .pc{width:34px;text-align:right;font-weight:600}
.lsub{font-size:11px;margin:0 0 6px 60px}
.acard{display:flex;align-items:center;gap:8px;border:1px solid var(--line);border-radius:8px;padding:4px 8px;margin-bottom:5px;font-size:12px}
.acard.off{opacity:.62}.acard.main{border-color:#55556a}.acard .bar{margin-top:3px}
.acard .side{color:var(--dim);font-size:11px;text-align:right;white-space:nowrap;padding-left:6px}.branch{color:var(--dim);margin-right:-4px}
.prow{display:flex;gap:8px;font-size:12px}.prow .pi{color:var(--dim)}.prow .pt{flex:1;min-width:0;overflow:hidden;text-overflow:ellipsis;white-space:nowrap}
.chips{display:flex;flex-wrap:wrap;gap:4px;margin:3px 0 8px 22px}
.chip{display:inline-flex;align-items:center;gap:4px;border:1px solid var(--line);border-radius:10px;padding:0 7px 0 4px;font-size:11px}
.chip.resumed{border-style:dashed}.chip.fork{border-color:#8b5cf6}
.urow{display:flex;align-items:center;gap:8px;font-size:12px;margin-bottom:4px}.urow .un{flex:none;overflow:hidden;text-overflow:ellipsis;white-space:nowrap}.urow .uv{margin-left:auto;white-space:nowrap}
.legend{font-size:11px;margin:2px 0 8px}.legend i{display:inline-block;width:8px;height:8px;border-radius:2px;margin:0 3px 0 8px}.legend i:first-child{margin-left:0}]]></style><section class="pane" style="width:720px">
<div class="hd"><b>Session</b><span class="dim">300.1k tok · $3.42 · 1 h 35</span></div>
<h4><span class="tw">▾</span>Limits<span class="dim sum"> · 5 h 63% · 7 days 84%</span></h4><div class="lim"><span class="lk">5 h</span><svg xmlns="http://www.w3.org/2000/svg" width="586" height="16" viewBox="0 0 586 16" style="color-scheme:light dark;background:transparent"><defs><clipPath id="lcreadmel0"><rect width="586" height="16" rx="8"/></clipPath><pattern id="lhreadmel0" width="6" height="6" patternUnits="userSpaceOnUse" patternTransform="rotate(45)"><rect width="3" height="6" fill="#f59e0b" fill-opacity="0.5"/></pattern></defs><g clip-path="url(#lcreadmel0)"><rect width="586" height="16" fill="#8a8a87" fill-opacity="0.2"/><rect x="369" width="123" height="16" fill="url(#lhreadmel0)"/><rect width="369" height="16" fill="#22c55e"/></g><rect x="468" y="0" width="2" height="16" fill="#f59e0b" fill-opacity="0.8"/><rect x="556" y="0" width="2" height="16" fill="#ef4444" fill-opacity="0.8"/></svg><span class="pc" style="color:#22c55e">63%</span></div>
<div class="lsub dim">resets 13:00 · → 84% at reset</div><div class="lim"><span class="lk">7 days</span><svg xmlns="http://www.w3.org/2000/svg" width="586" height="16" viewBox="0 0 586 16" style="color-scheme:light dark;background:transparent"><defs><clipPath id="lcreadmel1"><rect width="586" height="16" rx="8"/></clipPath><pattern id="lhreadmel1" width="6" height="6" patternUnits="userSpaceOnUse" patternTransform="rotate(45)"><rect width="3" height="6" fill="#ef4444" fill-opacity="0.5"/></pattern></defs><g clip-path="url(#lcreadmel1)"><rect width="586" height="16" fill="#8a8a87" fill-opacity="0.2"/><rect x="492" width="94" height="16" fill="url(#lhreadmel1)"/><rect width="492" height="16" fill="#f59e0b"/></g><rect x="468" y="0" width="2" height="16" fill="#f59e0b" fill-opacity="0.8"/><rect x="556" y="0" width="2" height="16" fill="#ef4444" fill-opacity="0.8"/></svg><span class="pc" style="color:#f59e0b">84%</span></div>
<div class="lsub dim">resets 10-10 08:00 · <span style="color:#ef4444">full ≈ 16:23</span></div>
<h4><span class="tw">▾</span>Agents<span class="dim sum"> · 3 active / 4</span></h4><div class="acard main" style="margin-left:0px"><svg xmlns="http://www.w3.org/2000/svg" width="31" height="30" style="color-scheme:light dark;background:transparent" viewBox="0 -0.5 13 12.5" shape-rendering="crispEdges"><g><animateTransform attributeName="transform" type="translate" values="0 0;0 -0.5;0 0" dur="0.7s" repeatCount="indefinite"/><rect x="2" y="5" width="9" height="5" fill="#d97757"/><rect x="0" y="7" width="2" height="2" fill="#d97757"/><rect x="11" y="7" width="2" height="2" fill="#d97757"/><rect x="3" y="10" width="1" height="2" fill="#d97757"/><rect x="5" y="10" width="1" height="2" fill="#d97757"/><rect x="7" y="10" width="1" height="2" fill="#d97757"/><rect x="9" y="10" width="1" height="2" fill="#d97757"/><rect x="3" y="2" width="7" height="1" fill="#26262b"/><rect x="1" y="3" width="11" height="1" fill="#26262b"/><rect x="4" y="4" width="5" height="1" fill="#26262b"/><rect x="10" y="4" width="1" height="1" fill="#f5c542"/><rect x="3" y="6" width="3" height="2" fill="#cfe8ff"/><rect x="7" y="6" width="3" height="2" fill="#cfe8ff"/><rect x="6" y="6" width="1" height="1" fill="#26262b"/><rect x="3" y="7" width="3" height="1" fill="#8fb8e0"/><rect x="7" y="7" width="3" height="1" fill="#8fb8e0"/><rect x="4" y="6" width="1" height="2" fill="#1b1b1f"/><rect x="8" y="6" width="1" height="2" fill="#1b1b1f"/><rect x="5" y="9" width="1" height="1" fill="#d83a3a"/><rect x="7" y="9" width="1" height="1" fill="#d83a3a"/><rect x="6" y="9" width="1" height="1" fill="#8b1e1e"/><rect x="11" y="4" width="2" height="3" fill="#f3ead2"/><rect x="11" y="5" width="2" height="1" fill="#d83a3a"/></g></svg>
<div class="txt"><div>main agent</div><div class="dim">opus-5-5 · high</div><div class="dim sm">default · session</div>
<div class="bar"><svg xmlns="http://www.w3.org/2000/svg" width="500" height="6" viewBox="0 0 500 6" style="color-scheme:light dark;background:transparent"><defs><clipPath id="ucreadmea0"><rect width="500" height="6" rx="3"/></clipPath></defs><rect width="500" height="6" rx="3" fill="#8a8a87" fill-opacity="0.15"/><g clip-path="url(#ucreadmea0)"><rect x="0" width="426.67" height="6" fill="#a78bfa"/><rect x="426.67" width="65.33" height="6" fill="#d97757"/><rect x="492" width="8" height="6" fill="#60a5fa"/></g></svg></div></div>
<div class="side"><div>1 h 35</div><div>75.0k · 25%</div></div></div><div class="acard off" style="margin-left:0px"><svg xmlns="http://www.w3.org/2000/svg" width="31" height="30" style="color-scheme:light dark;background:transparent" viewBox="0 -0.5 13 12.5" shape-rendering="crispEdges"><g><rect x="2" y="5" width="9" height="5" fill="#9a9a9a"/><rect x="0" y="7" width="2" height="2" fill="#9a9a9a"/><rect x="11" y="7" width="2" height="2" fill="#9a9a9a"/><rect x="3" y="10" width="1" height="2" fill="#9a9a9a"/><rect x="5" y="10" width="1" height="2" fill="#9a9a9a"/><rect x="7" y="10" width="1" height="2" fill="#9a9a9a"/><rect x="9" y="10" width="1" height="2" fill="#9a9a9a"/><rect x="4" y="2" width="5" height="1" fill="#505050"/><rect x="3" y="3" width="7" height="1" fill="#505050"/><rect x="2" y="4" width="9" height="1" fill="#6a6a6a"/><rect x="12" y="0" width="1" height="1" fill="#f4f4f4"/><rect x="11" y="1" width="2" height="2" fill="#f4f4f4"/><rect x="12" y="1" width="1" height="2" fill="#cfcfcf"/><rect x="11" y="3" width="1" height="1" fill="#f4f4f4"/><rect x="11" y="4" width="1" height="2" fill="#3a3a3a"/><rect x="11" y="6" width="1" height="1" fill="#515151"/><rect x="0" y="2" width="2" height="4" fill="#e3e3e3"/><rect x="0" y="1" width="2" height="1" fill="#ababab"/><rect x="0" y="6" width="2" height="1" fill="#ababab"/><rect x="0" y="3" width="1" height="1" fill="#505050"/><rect x="1" y="4" width="1" height="1" fill="#505050"/><rect x="4" y="6" width="1" height="2" fill="#1b1b1b"/><rect x="8" y="6" width="1" height="2" fill="#1b1b1b"/></g></svg>
<div class="txt"><div>note the gauge decision ✓</div><div class="dim">haiku-5-5 · xhigh</div><div class="dim sm">scribe · resumed ×2 · #1</div>
<div class="bar"><svg xmlns="http://www.w3.org/2000/svg" width="500" height="6" viewBox="0 0 500 6" style="color-scheme:light dark;background:transparent"><defs><clipPath id="ucreadmea1"><rect width="374" height="6" rx="3"/></clipPath></defs><rect width="500" height="6" rx="3" fill="#8a8a87" fill-opacity="0.15"/><g clip-path="url(#ucreadmea1)"><rect x="0" width="340" height="6" fill="#a78bfa"/><rect x="340" width="26" height="6" fill="#d97757"/><rect x="366" width="8" height="6" fill="#60a5fa"/></g></svg></div></div>
<div class="side"><div>3 min 00</div><div>56.1k · 19%</div></div></div><div class="acard" style="margin-left:0px"><svg xmlns="http://www.w3.org/2000/svg" width="31" height="30" style="color-scheme:light dark;background:transparent" viewBox="0 -0.5 13 12.5" shape-rendering="crispEdges"><g><animateTransform attributeName="transform" type="translate" values="0 0;0 -0.5;0 0" dur="0.7s" repeatCount="indefinite"/><rect x="2" y="5" width="9" height="5" fill="#d97757"/><rect x="0" y="7" width="2" height="2" fill="#d97757"/><rect x="11" y="7" width="2" height="2" fill="#d97757"/><rect x="3" y="10" width="1" height="2" fill="#d97757"/><rect x="5" y="10" width="1" height="2" fill="#d97757"/><rect x="7" y="10" width="1" height="2" fill="#d97757"/><rect x="9" y="10" width="1" height="2" fill="#d97757"/><rect x="4" y="0" width="5" height="1" fill="#f7f7f7"/><rect x="3" y="1" width="7" height="1" fill="#f7f7f7"/><rect x="4" y="2" width="5" height="2" fill="#f7f7f7"/><rect x="3" y="4" width="7" height="1" fill="#dcdcdc"/><rect x="5" y="2" width="3" height="2" fill="#f08bb0"/><rect x="6" y="2" width="1" height="2" fill="#c9567f"/><rect x="2" y="8" width="9" height="2" fill="#f7f7f7"/><rect x="0" y="7" width="2" height="2" fill="#f7f7f7"/><rect x="11" y="7" width="2" height="2" fill="#f7f7f7"/><rect x="5" y="8" width="3" height="1" fill="#d83a3a"/><rect x="6" y="9" width="1" height="1" fill="#d83a3a"/><rect x="4" y="9" width="1" height="1" fill="#bdbdbd"/><rect x="8" y="9" width="1" height="1" fill="#bdbdbd"/><rect x="11" y="0" width="2" height="2" fill="#b07a43"/><rect x="12" y="2" width="1" height="5" fill="#8b5a2b"/><rect x="4" y="6" width="1" height="2" fill="#1b1b1f"/><rect x="8" y="6" width="1" height="2" fill="#1b1b1f"/></g></svg>
<div class="txt"><div>deliver the pane redesign</div><div class="dim">opus-5-5 · high</div><div class="dim sm">orchestrator · #2</div>
<div class="bar"><svg xmlns="http://www.w3.org/2000/svg" width="500" height="6" viewBox="0 0 500 6" style="color-scheme:light dark;background:transparent"><defs><clipPath id="ucreadmea2"><rect width="416.67" height="6" rx="3"/></clipPath></defs><rect width="500" height="6" rx="3" fill="#8a8a87" fill-opacity="0.15"/><g clip-path="url(#ucreadmea2)"><rect x="0" width="353.33" height="6" fill="#a78bfa"/><rect x="353.33" width="49.33" height="6" fill="#d97757"/><rect x="402.67" width="14" height="6" fill="#60a5fa"/></g></svg></div></div>
<div class="side"><div>1 h 18</div><div>62.5k · 21%</div></div></div><div class="acard" style="margin-left:18px"><span class="branch">└</span><svg xmlns="http://www.w3.org/2000/svg" width="31" height="30" style="color-scheme:light dark;background:transparent" viewBox="0 -0.5 13 12.5" shape-rendering="crispEdges"><g><animateTransform attributeName="transform" type="translate" values="0 0;0 -0.5;0 0" dur="0.7s" repeatCount="indefinite"/><rect x="2" y="5" width="9" height="5" fill="#d97757"/><rect x="0" y="7" width="2" height="2" fill="#d97757"/><rect x="11" y="7" width="2" height="2" fill="#d97757"/><rect x="3" y="10" width="1" height="2" fill="#d97757"/><rect x="5" y="10" width="1" height="2" fill="#d97757"/><rect x="7" y="10" width="1" height="2" fill="#d97757"/><rect x="9" y="10" width="1" height="2" fill="#d97757"/><rect x="2" y="4" width="9" height="1" fill="#d83a3a"/><rect x="4" y="4" width="1" height="1" fill="#f4f4f4"/><rect x="8" y="4" width="1" height="1" fill="#f4f4f4"/><rect x="2" y="9" width="9" height="1" fill="#7a4a2a"/><rect x="6" y="9" width="1" height="1" fill="#f5c542"/><rect x="3" y="9" width="1" height="1" fill="#9aa3ad"/><rect x="9" y="9" width="1" height="1" fill="#9aa3ad"/><rect x="10" y="2" width="3" height="1" fill="#9aa3ad"/><rect x="12" y="3" width="1" height="4" fill="#8b5a2b"/><rect x="4" y="6" width="1" height="2" fill="#1b1b1f"/><rect x="8" y="6" width="1" height="2" fill="#1b1b1f"/></g></svg>
<div class="txt"><div>implement the pane layout</div><div class="dim">sonnet-5-5 · medium (Edit)</div><div class="dim sm">executor-medium · #2</div>
<div class="bar"><svg xmlns="http://www.w3.org/2000/svg" width="482" height="6" viewBox="0 0 482 6" style="color-scheme:light dark;background:transparent"><defs><clipPath id="ucreadmea3"><rect width="378.53" height="6" rx="3"/></clipPath></defs><rect width="482" height="6" rx="3" fill="#8a8a87" fill-opacity="0.15"/><g clip-path="url(#ucreadmea3)"><rect x="0" width="289.2" height="6" fill="#a78bfa"/><rect x="289.2" width="79.69" height="6" fill="#d97757"/><rect x="368.89" width="9.64" height="6" fill="#60a5fa"/></g></svg></div></div>
<div class="side"><div>15 min 00</div><div>58.9k · 20%</div></div></div><div class="acard" style="margin-left:18px"><span class="branch">└</span><svg xmlns="http://www.w3.org/2000/svg" width="31" height="30" style="color-scheme:light dark;background:transparent" viewBox="0 -0.5 13 12.5" shape-rendering="crispEdges"><g><animateTransform attributeName="transform" type="translate" values="0 0;0 -0.5;0 0" dur="0.35s" repeatCount="indefinite"/><rect x="2" y="5" width="9" height="5" fill="#d97757"/><rect x="0" y="7" width="2" height="2" fill="#d97757"/><rect x="11" y="7" width="2" height="2" fill="#d97757"/><rect x="3" y="10" width="1" height="2" fill="#d97757"/><rect x="5" y="10" width="1" height="2" fill="#d97757"/><rect x="7" y="10" width="1" height="2" fill="#d97757"/><rect x="9" y="10" width="1" height="2" fill="#d97757"/><rect x="4" y="2" width="5" height="1" fill="#2f7de1"/><rect x="3" y="3" width="7" height="1" fill="#2f7de1"/><rect x="6" y="3" width="1" height="1" fill="#f4f4f4"/><rect x="1" y="4" width="11" height="1" fill="#1f5fb3"/><rect x="11" y="5" width="2" height="2" fill="#c08a4a"/><rect x="11" y="5" width="1" height="2" fill="#e8c48a"/><rect x="4" y="6" width="1" height="2" fill="#1b1b1f"/><rect x="8" y="6" width="1" height="2" fill="#1b1b1f"/></g></svg>
<div class="txt"><div>write the render tests</div><div class="dim">haiku-5-5 · low (Write)</div><div class="dim sm">executor-low · #2</div>
<div class="bar"><svg xmlns="http://www.w3.org/2000/svg" width="482" height="6" viewBox="0 0 482 6" style="color-scheme:light dark;background:transparent"><defs><clipPath id="ucreadmea4"><rect width="305.91" height="6" rx="3"/></clipPath></defs><rect width="482" height="6" rx="3" fill="#8a8a87" fill-opacity="0.15"/><g clip-path="url(#ucreadmea4)"><rect x="0" width="289.2" height="6" fill="#a78bfa"/><rect x="289.2" width="14.14" height="6" fill="#d97757"/><rect x="303.34" width="2.57" height="6" fill="#60a5fa"/></g></svg></div></div>
<div class="side"><div>2 min 00</div><div>47.6k · 16%</div></div></div>
<h4><span class="tw">▾</span>Prompts<span class="dim sum"> · 2 prompt(s)</span></h4><div class="prow"><span class="pi">#1</span><span class="pt">Redo the /agents-info pane on the model of the band SVG</span><span class="dim">10:01</span></div><div class="chips"><span class="chip new"><svg xmlns="http://www.w3.org/2000/svg" width="15" height="14" style="color-scheme:light dark;background:transparent" viewBox="0 -0.5 13 12.5" shape-rendering="crispEdges"><g><rect x="2" y="5" width="9" height="5" fill="#9a9a9a"/><rect x="0" y="7" width="2" height="2" fill="#9a9a9a"/><rect x="11" y="7" width="2" height="2" fill="#9a9a9a"/><rect x="3" y="10" width="1" height="2" fill="#9a9a9a"/><rect x="5" y="10" width="1" height="2" fill="#9a9a9a"/><rect x="7" y="10" width="1" height="2" fill="#9a9a9a"/><rect x="9" y="10" width="1" height="2" fill="#9a9a9a"/><rect x="4" y="2" width="5" height="1" fill="#505050"/><rect x="3" y="3" width="7" height="1" fill="#505050"/><rect x="2" y="4" width="9" height="1" fill="#6a6a6a"/><rect x="12" y="0" width="1" height="1" fill="#f4f4f4"/><rect x="11" y="1" width="2" height="2" fill="#f4f4f4"/><rect x="12" y="1" width="1" height="2" fill="#cfcfcf"/><rect x="11" y="3" width="1" height="1" fill="#f4f4f4"/><rect x="11" y="4" width="1" height="2" fill="#3a3a3a"/><rect x="11" y="6" width="1" height="1" fill="#515151"/><rect x="0" y="2" width="2" height="4" fill="#e3e3e3"/><rect x="0" y="1" width="2" height="1" fill="#ababab"/><rect x="0" y="6" width="2" height="1" fill="#ababab"/><rect x="0" y="3" width="1" height="1" fill="#505050"/><rect x="1" y="4" width="1" height="1" fill="#505050"/><rect x="4" y="6" width="1" height="2" fill="#1b1b1b"/><rect x="8" y="6" width="1" height="2" fill="#1b1b1b"/></g></svg>new scribe</span></div><div class="prow"><span class="pi">#2</span><span class="pt">Go, implement it with tests</span><span class="dim">10:10</span></div><div class="chips"><span class="chip new"><svg xmlns="http://www.w3.org/2000/svg" width="15" height="14" style="color-scheme:light dark;background:transparent" viewBox="0 -0.5 13 12.5" shape-rendering="crispEdges"><g><rect x="2" y="5" width="9" height="5" fill="#d97757"/><rect x="0" y="7" width="2" height="2" fill="#d97757"/><rect x="11" y="7" width="2" height="2" fill="#d97757"/><rect x="3" y="10" width="1" height="2" fill="#d97757"/><rect x="5" y="10" width="1" height="2" fill="#d97757"/><rect x="7" y="10" width="1" height="2" fill="#d97757"/><rect x="9" y="10" width="1" height="2" fill="#d97757"/><rect x="4" y="0" width="5" height="1" fill="#f7f7f7"/><rect x="3" y="1" width="7" height="1" fill="#f7f7f7"/><rect x="4" y="2" width="5" height="2" fill="#f7f7f7"/><rect x="3" y="4" width="7" height="1" fill="#dcdcdc"/><rect x="5" y="2" width="3" height="2" fill="#f08bb0"/><rect x="6" y="2" width="1" height="2" fill="#c9567f"/><rect x="2" y="8" width="9" height="2" fill="#f7f7f7"/><rect x="0" y="7" width="2" height="2" fill="#f7f7f7"/><rect x="11" y="7" width="2" height="2" fill="#f7f7f7"/><rect x="5" y="8" width="3" height="1" fill="#d83a3a"/><rect x="6" y="9" width="1" height="1" fill="#d83a3a"/><rect x="4" y="9" width="1" height="1" fill="#bdbdbd"/><rect x="8" y="9" width="1" height="1" fill="#bdbdbd"/><rect x="11" y="0" width="2" height="2" fill="#b07a43"/><rect x="12" y="2" width="1" height="5" fill="#8b5a2b"/><rect x="4" y="6" width="1" height="2" fill="#1b1b1f"/><rect x="8" y="6" width="1" height="2" fill="#1b1b1f"/></g></svg>new orchestrator</span><span class="chip new"><svg xmlns="http://www.w3.org/2000/svg" width="15" height="14" style="color-scheme:light dark;background:transparent" viewBox="0 -0.5 13 12.5" shape-rendering="crispEdges"><g><rect x="2" y="5" width="9" height="5" fill="#d97757"/><rect x="0" y="7" width="2" height="2" fill="#d97757"/><rect x="11" y="7" width="2" height="2" fill="#d97757"/><rect x="3" y="10" width="1" height="2" fill="#d97757"/><rect x="5" y="10" width="1" height="2" fill="#d97757"/><rect x="7" y="10" width="1" height="2" fill="#d97757"/><rect x="9" y="10" width="1" height="2" fill="#d97757"/><rect x="2" y="4" width="9" height="1" fill="#d83a3a"/><rect x="4" y="4" width="1" height="1" fill="#f4f4f4"/><rect x="8" y="4" width="1" height="1" fill="#f4f4f4"/><rect x="2" y="9" width="9" height="1" fill="#7a4a2a"/><rect x="6" y="9" width="1" height="1" fill="#f5c542"/><rect x="3" y="9" width="1" height="1" fill="#9aa3ad"/><rect x="9" y="9" width="1" height="1" fill="#9aa3ad"/><rect x="10" y="2" width="3" height="1" fill="#9aa3ad"/><rect x="12" y="3" width="1" height="4" fill="#8b5a2b"/><rect x="4" y="6" width="1" height="2" fill="#1b1b1f"/><rect x="8" y="6" width="1" height="2" fill="#1b1b1f"/></g></svg>new executor-medium</span><span class="chip new"><svg xmlns="http://www.w3.org/2000/svg" width="15" height="14" style="color-scheme:light dark;background:transparent" viewBox="0 -0.5 13 12.5" shape-rendering="crispEdges"><g><rect x="2" y="5" width="9" height="5" fill="#d97757"/><rect x="0" y="7" width="2" height="2" fill="#d97757"/><rect x="11" y="7" width="2" height="2" fill="#d97757"/><rect x="3" y="10" width="1" height="2" fill="#d97757"/><rect x="5" y="10" width="1" height="2" fill="#d97757"/><rect x="7" y="10" width="1" height="2" fill="#d97757"/><rect x="9" y="10" width="1" height="2" fill="#d97757"/><rect x="4" y="2" width="5" height="1" fill="#2f7de1"/><rect x="3" y="3" width="7" height="1" fill="#2f7de1"/><rect x="6" y="3" width="1" height="1" fill="#f4f4f4"/><rect x="1" y="4" width="11" height="1" fill="#1f5fb3"/><rect x="11" y="5" width="2" height="2" fill="#c08a4a"/><rect x="11" y="5" width="1" height="2" fill="#e8c48a"/><rect x="4" y="6" width="1" height="2" fill="#1b1b1f"/><rect x="8" y="6" width="1" height="2" fill="#1b1b1f"/></g></svg>new executor-low</span><span class="chip resumed"><svg xmlns="http://www.w3.org/2000/svg" width="15" height="14" style="color-scheme:light dark;background:transparent" viewBox="0 -0.5 13 12.5" shape-rendering="crispEdges"><g><rect x="2" y="5" width="9" height="5" fill="#9a9a9a"/><rect x="0" y="7" width="2" height="2" fill="#9a9a9a"/><rect x="11" y="7" width="2" height="2" fill="#9a9a9a"/><rect x="3" y="10" width="1" height="2" fill="#9a9a9a"/><rect x="5" y="10" width="1" height="2" fill="#9a9a9a"/><rect x="7" y="10" width="1" height="2" fill="#9a9a9a"/><rect x="9" y="10" width="1" height="2" fill="#9a9a9a"/><rect x="4" y="2" width="5" height="1" fill="#505050"/><rect x="3" y="3" width="7" height="1" fill="#505050"/><rect x="2" y="4" width="9" height="1" fill="#6a6a6a"/><rect x="12" y="0" width="1" height="1" fill="#f4f4f4"/><rect x="11" y="1" width="2" height="2" fill="#f4f4f4"/><rect x="12" y="1" width="1" height="2" fill="#cfcfcf"/><rect x="11" y="3" width="1" height="1" fill="#f4f4f4"/><rect x="11" y="4" width="1" height="2" fill="#3a3a3a"/><rect x="11" y="6" width="1" height="1" fill="#515151"/><rect x="0" y="2" width="2" height="4" fill="#e3e3e3"/><rect x="0" y="1" width="2" height="1" fill="#ababab"/><rect x="0" y="6" width="2" height="1" fill="#ababab"/><rect x="0" y="3" width="1" height="1" fill="#505050"/><rect x="1" y="4" width="1" height="1" fill="#505050"/><rect x="4" y="6" width="1" height="2" fill="#1b1b1b"/><rect x="8" y="6" width="1" height="2" fill="#1b1b1b"/></g></svg>resumed scribe</span></div>
<h4><span class="tw">▾</span>Usage<span class="dim sum"> · 300.1k tok</span></h4><div class="urow"><svg xmlns="http://www.w3.org/2000/svg" width="600" height="10" viewBox="0 0 600 10" style="color-scheme:light dark;background:transparent"><defs><clipPath id="ucreadmet"><rect width="600" height="10" rx="5"/></clipPath></defs><rect width="600" height="10" rx="5" fill="#8a8a87" fill-opacity="0.15"/><g clip-path="url(#ucreadmet)"><rect x="0" width="515.83" height="10" fill="#a78bfa"/><rect x="515.83" width="71.38" height="10" fill="#d97757"/><rect x="587.2" width="12.8" height="10" fill="#60a5fa"/></g></svg><span class="uv"><b>300.1k</b> tok</span></div>
<div class="legend dim"><i style="background:#a78bfa"></i>cache written 258.0k <i style="background:#d97757"></i>output 35.7k <i style="background:#60a5fa"></i>input 6.4k · cache read 1.6M not counted · $3.42</div>
<div class="urow"><svg xmlns="http://www.w3.org/2000/svg" width="19" height="18" style="color-scheme:light dark;background:transparent" viewBox="0 -0.5 13 12.5" shape-rendering="crispEdges"><g><rect x="2" y="5" width="9" height="5" fill="#d97757"/><rect x="0" y="7" width="2" height="2" fill="#d97757"/><rect x="11" y="7" width="2" height="2" fill="#d97757"/><rect x="3" y="10" width="1" height="2" fill="#d97757"/><rect x="5" y="10" width="1" height="2" fill="#d97757"/><rect x="7" y="10" width="1" height="2" fill="#d97757"/><rect x="9" y="10" width="1" height="2" fill="#d97757"/><rect x="3" y="2" width="7" height="1" fill="#26262b"/><rect x="1" y="3" width="11" height="1" fill="#26262b"/><rect x="4" y="4" width="5" height="1" fill="#26262b"/><rect x="10" y="4" width="1" height="1" fill="#f5c542"/><rect x="3" y="6" width="3" height="2" fill="#cfe8ff"/><rect x="7" y="6" width="3" height="2" fill="#cfe8ff"/><rect x="6" y="6" width="1" height="1" fill="#26262b"/><rect x="3" y="7" width="3" height="1" fill="#8fb8e0"/><rect x="7" y="7" width="3" height="1" fill="#8fb8e0"/><rect x="4" y="6" width="1" height="2" fill="#1b1b1f"/><rect x="8" y="6" width="1" height="2" fill="#1b1b1f"/><rect x="5" y="9" width="1" height="1" fill="#d83a3a"/><rect x="7" y="9" width="1" height="1" fill="#d83a3a"/><rect x="6" y="9" width="1" height="1" fill="#8b1e1e"/><rect x="11" y="4" width="2" height="3" fill="#f3ead2"/><rect x="11" y="5" width="2" height="1" fill="#d83a3a"/></g></svg><span class="un" style="width:170px">opus-5-5<span class="dim"> · high</span></span><svg xmlns="http://www.w3.org/2000/svg" width="400" height="8" viewBox="0 0 400 8" style="color-scheme:light dark;background:transparent"><defs><clipPath id="ucreadmem0"><rect width="400" height="8" rx="4"/></clipPath></defs><rect width="400" height="8" rx="4" fill="#8a8a87" fill-opacity="0.15"/><g clip-path="url(#ucreadmem0)"><rect x="0" width="340.36" height="8" fill="#a78bfa"/><rect x="340.36" width="50.04" height="8" fill="#d97757"/><rect x="390.4" width="9.6" height="8" fill="#60a5fa"/></g></svg><span class="uv">137.5k <span class="dim">46%</span></span></div><div class="urow"><svg xmlns="http://www.w3.org/2000/svg" width="19" height="18" style="color-scheme:light dark;background:transparent" viewBox="0 -0.5 13 12.5" shape-rendering="crispEdges"><g><rect x="2" y="5" width="9" height="5" fill="#d97757"/><rect x="0" y="7" width="2" height="2" fill="#d97757"/><rect x="11" y="7" width="2" height="2" fill="#d97757"/><rect x="3" y="10" width="1" height="2" fill="#d97757"/><rect x="5" y="10" width="1" height="2" fill="#d97757"/><rect x="7" y="10" width="1" height="2" fill="#d97757"/><rect x="9" y="10" width="1" height="2" fill="#d97757"/><rect x="2" y="4" width="9" height="1" fill="#d83a3a"/><rect x="4" y="4" width="1" height="1" fill="#f4f4f4"/><rect x="8" y="4" width="1" height="1" fill="#f4f4f4"/><rect x="2" y="9" width="9" height="1" fill="#7a4a2a"/><rect x="6" y="9" width="1" height="1" fill="#f5c542"/><rect x="3" y="9" width="1" height="1" fill="#9aa3ad"/><rect x="9" y="9" width="1" height="1" fill="#9aa3ad"/><rect x="10" y="2" width="3" height="1" fill="#9aa3ad"/><rect x="12" y="3" width="1" height="4" fill="#8b5a2b"/><rect x="4" y="6" width="1" height="2" fill="#1b1b1f"/><rect x="8" y="6" width="1" height="2" fill="#1b1b1f"/></g></svg><span class="un" style="width:170px">sonnet-5-5<span class="dim"> · medium</span></span><svg xmlns="http://www.w3.org/2000/svg" width="400" height="8" viewBox="0 0 400 8" style="color-scheme:light dark;background:transparent"><defs><clipPath id="ucreadmem1"><rect width="171.35" height="8" rx="4"/></clipPath></defs><rect width="400" height="8" rx="4" fill="#8a8a87" fill-opacity="0.15"/><g clip-path="url(#ucreadmem1)"><rect x="0" width="130.91" height="8" fill="#a78bfa"/><rect x="130.91" width="36.07" height="8" fill="#d97757"/><rect x="166.98" width="4.36" height="8" fill="#60a5fa"/></g></svg><span class="uv">58.9k <span class="dim">20%</span></span></div><div class="urow"><svg xmlns="http://www.w3.org/2000/svg" width="19" height="18" style="color-scheme:light dark;background:transparent" viewBox="0 -0.5 13 12.5" shape-rendering="crispEdges"><g><rect x="2" y="5" width="9" height="5" fill="#d97757"/><rect x="0" y="7" width="2" height="2" fill="#d97757"/><rect x="11" y="7" width="2" height="2" fill="#d97757"/><rect x="3" y="10" width="1" height="2" fill="#d97757"/><rect x="5" y="10" width="1" height="2" fill="#d97757"/><rect x="7" y="10" width="1" height="2" fill="#d97757"/><rect x="9" y="10" width="1" height="2" fill="#d97757"/><rect x="4" y="2" width="5" height="1" fill="#2f7de1"/><rect x="3" y="3" width="7" height="1" fill="#2f7de1"/><rect x="6" y="3" width="1" height="1" fill="#f4f4f4"/><rect x="1" y="4" width="11" height="1" fill="#1f5fb3"/><rect x="11" y="5" width="2" height="2" fill="#c08a4a"/><rect x="11" y="5" width="1" height="2" fill="#e8c48a"/><rect x="4" y="6" width="1" height="2" fill="#1b1b1f"/><rect x="8" y="6" width="1" height="2" fill="#1b1b1f"/></g></svg><span class="un" style="width:170px">haiku-5-5<span class="dim"> · xhigh</span></span><svg xmlns="http://www.w3.org/2000/svg" width="400" height="8" viewBox="0 0 400 8" style="color-scheme:light dark;background:transparent"><defs><clipPath id="ucreadmem2"><rect width="163.2" height="8" rx="4"/></clipPath></defs><rect width="400" height="8" rx="4" fill="#8a8a87" fill-opacity="0.15"/><g clip-path="url(#ucreadmem2)"><rect x="0" width="148.36" height="8" fill="#a78bfa"/><rect x="148.36" width="11.35" height="8" fill="#d97757"/><rect x="159.71" width="3.49" height="8" fill="#60a5fa"/></g></svg><span class="uv">56.1k <span class="dim">19%</span></span></div><div class="urow"><svg xmlns="http://www.w3.org/2000/svg" width="19" height="18" style="color-scheme:light dark;background:transparent" viewBox="0 -0.5 13 12.5" shape-rendering="crispEdges"><g><rect x="2" y="5" width="9" height="5" fill="#d97757"/><rect x="0" y="7" width="2" height="2" fill="#d97757"/><rect x="11" y="7" width="2" height="2" fill="#d97757"/><rect x="3" y="10" width="1" height="2" fill="#d97757"/><rect x="5" y="10" width="1" height="2" fill="#d97757"/><rect x="7" y="10" width="1" height="2" fill="#d97757"/><rect x="9" y="10" width="1" height="2" fill="#d97757"/><rect x="4" y="2" width="5" height="1" fill="#2f7de1"/><rect x="3" y="3" width="7" height="1" fill="#2f7de1"/><rect x="6" y="3" width="1" height="1" fill="#f4f4f4"/><rect x="1" y="4" width="11" height="1" fill="#1f5fb3"/><rect x="11" y="5" width="2" height="2" fill="#c08a4a"/><rect x="11" y="5" width="1" height="2" fill="#e8c48a"/><rect x="4" y="6" width="1" height="2" fill="#1b1b1f"/><rect x="8" y="6" width="1" height="2" fill="#1b1b1f"/></g></svg><span class="un" style="width:170px">haiku-5-5<span class="dim"> · low</span></span><svg xmlns="http://www.w3.org/2000/svg" width="400" height="8" viewBox="0 0 400 8" style="color-scheme:light dark;background:transparent"><defs><clipPath id="ucreadmem3"><rect width="138.47" height="8" rx="4"/></clipPath></defs><rect width="400" height="8" rx="4" fill="#8a8a87" fill-opacity="0.15"/><g clip-path="url(#ucreadmem3)"><rect x="0" width="130.91" height="8" fill="#a78bfa"/><rect x="130.91" width="6.4" height="8" fill="#d97757"/><rect x="137.31" width="1.16" height="8" fill="#60a5fa"/></g></svg><span class="uv">47.6k <span class="dim">16%</span></span></div>
</section></div></foreignObject></svg>